<?xml version="1.0" standalone="no"?>
<!DOCTYPE svg PUBLIC "-//W3C//DTD SVG 20010904//EN"
 "http://www.w3.org/TR/2001/REC-SVG-20010904/DTD/svg10.dtd">
<svg version="1.0" xmlns="http://www.w3.org/2000/svg"
 width="2224.000000pt" height="2224.000000pt" viewBox="0 0 2224.000000 2224.000000"
 preserveAspectRatio="xMidYMid meet">

<g transform="translate(0.000000,2224.000000) scale(0.100000,-0.100000)"
fill="#000000" stroke="none">
<path d="M10621 18164 c-211 -1292 -401 -2452 -422 -2579 -20 -126 -58 -356
-83 -510 -25 -154 -73 -444 -105 -645 -33 -201 -74 -450 -91 -555 -44 -272
-150 -916 -225 -1375 -35 -217 -105 -644 -155 -949 -50 -305 -92 -556 -94
-559 -2 -2 -9 12 -14 30 -6 18 -106 339 -222 713 -183 588 -319 1025 -823
2643 l-91 292 -913 0 c-693 0 -913 -3 -913 -12 0 -6 22 -79 49 -162 27 -83
154 -470 281 -861 127 -390 301 -921 385 -1180 84 -258 225 -690 313 -960 367
-1125 622 -1905 751 -2300 l137 -420 1094 0 1095 0 22 155 c13 85 88 632 168
1215 80 583 150 1089 155 1125 5 36 28 198 50 360 l40 295 -2 4294 -3 4295
-384 -2350z"/>
<path d="M11231 16219 l-1 -4296 25 -184 c14 -101 43 -312 65 -469 22 -157 98
-712 170 -1235 72 -522 140 -1020 153 -1105 l22 -155 1095 0 1094 0 137 420
c129 395 384 1175 751 2300 88 270 229 702 313 960 84 259 258 790 385 1180
127 391 254 778 281 861 27 83 49 156 49 162 0 9 -220 12 -913 12 l-913 0 -91
-292 c-504 -1618 -640 -2055 -823 -2643 -116 -374 -216 -695 -222 -713 -5 -18
-12 -32 -14 -30 -2 3 -44 254 -94 559 -50 305 -120 732 -155 949 -71 431 -176
1076 -225 1375 -17 105 -53 327 -81 495 -27 168 -66 402 -85 520 -54 330 -158
968 -219 1340 -30 184 -199 1217 -375 2295 -176 1078 -322 1967 -324 1975 -2
8 -4 -1918 -5 -4281z"/>
<path d="M9970 6373 c21 -49 293 -666 605 -1373 312 -707 767 -1741 1013
-2297 245 -557 448 -1011 450 -1008 2 2 96 212 209 467 112 255 272 616 355
803 83 187 210 475 283 640 73 165 262 593 420 950 328 742 481 1086 635 1435
60 135 131 296 158 358 l50 112 -412 0 -412 0 -207 -517 c-377 -946 -953
-2396 -998 -2510 -24 -62 -47 -113 -50 -113 -3 0 -185 433 -405 963 -219 529
-511 1234 -649 1567 l-250 605 -417 3 -417 2 39 -87z"/>
<path d="M347 5583 c189 -472 615 -1534 946 -2360 331 -827 604 -1503 607
-1503 3 0 50 98 104 218 460 1018 1120 2468 1125 2474 4 4 53 -106 110 -245
57 -138 183 -443 279 -677 96 -234 263 -641 371 -905 109 -264 233 -567 277
-672 43 -106 81 -189 85 -185 3 4 11 21 17 37 5 17 217 554 470 1195 657 1665
874 2217 1138 2885 l232 590 -371 3 c-204 1 -374 -1 -378 -5 -4 -5 -247 -685
-539 -1513 -293 -828 -538 -1518 -545 -1535 l-12 -30 -12 25 c-7 14 -290 707
-630 1540 l-619 1515 -347 3 c-328 2 -346 1 -341 -15 3 -10 110 -270 237 -578
127 -308 231 -569 231 -580 0 -11 -47 -135 -105 -275 -57 -140 -162 -397 -232
-570 -70 -173 -201 -496 -291 -718 -90 -222 -164 -407 -164 -413 0 -41 -33 36
-138 324 -109 300 -642 1762 -919 2522 l-110 300 -409 3 -410 2 343 -857z"/>
<path d="M8006 6388 c-7 -18 -172 -388 -366 -823 -193 -434 -534 -1199 -757
-1700 -223 -500 -527 -1182 -675 -1515 -149 -333 -272 -611 -275 -618 -4 -10
65 -12 342 -10 l348 3 241 560 241 560 888 0 889 0 232 -560 232 -560 398 -3
c376 -2 398 -1 393 15 -2 10 -181 416 -397 903 -215 487 -495 1117 -620 1400
-126 283 -353 796 -505 1140 -596 1347 -547 1240 -572 1240 -16 0 -27 -9 -37
-32z m319 -2203 c169 -407 310 -748 313 -757 4 -17 -31 -18 -643 -18 -386 0
-645 4 -643 9 35 96 655 1518 659 1513 4 -4 145 -340 314 -747z"/>
<path d="M15130 4070 l0 -2350 1600 0 1600 0 0 335 0 335 -1255 0 -1255 0 0
680 0 680 1075 0 1075 0 0 335 0 335 -1075 0 -1075 0 2 668 3 667 1208 3 1207
2 -2 328 -3 327 -1552 3 -1553 2 0 -2350z"/>
<path d="M20570 6399 c-361 -37 -674 -174 -896 -394 -236 -235 -344 -500 -344
-850 0 -292 68 -491 239 -698 100 -121 265 -249 461 -355 96 -52 333 -154 530
-227 236 -87 296 -112 422 -175 160 -80 258 -148 353 -244 132 -134 180 -247
179 -431 -1 -197 -47 -312 -178 -440 -88 -86 -155 -131 -263 -174 -329 -133
-675 -119 -1120 44 -136 50 -362 162 -462 230 -46 31 -87 52 -91 48 -4 -4 -73
-123 -154 -263 -168 -295 -166 -255 -16 -346 241 -146 579 -277 887 -344 328
-71 675 -78 982 -19 364 70 701 271 900 537 219 292 293 695 200 1092 -85 364
-314 627 -732 836 -128 65 -222 104 -447 189 -426 159 -639 270 -794 416 -125
117 -176 225 -176 377 0 159 51 286 155 387 76 74 150 119 259 156 339 117
782 58 1306 -173 74 -33 143 -61 153 -62 14 -1 48 56 147 246 72 137 130 252
130 257 0 11 -230 129 -345 177 -112 46 -296 108 -396 134 -245 63 -642 94
-889 69z"/>
</g>
</svg>
