<svg width="22" height="22" viewBox="0 0 22 22" fill="none" xmlns="http://www.w3.org/2000/svg">
<path d="M13.55 20.67C17.84 19.54 21 15.64 21 11C21 5.48 16.56 1 11 1C4.33 1 1 6.56 1 6.56M1 6.56V2M1 6.56H3.01H5.44" stroke="white" stroke-width="1.5" stroke-linecap="round" stroke-linejoin="round"/>
<path d="M1 11C1 16.52 5.48 21 11 21" stroke="white" stroke-width="1.5" stroke-linecap="round" stroke-linejoin="round"/>
<path d="M9.37814 7.72678V14.9995H8.27729V8.82764H8.23468L6.49462 9.964V8.91286L8.30925 7.72678H9.37814ZM13.8774 15.1203C13.3164 15.1179 12.8369 14.9699 12.4392 14.6764C12.0415 14.3828 11.7373 13.9555 11.5266 13.3944C11.3159 12.8333 11.2105 12.1574 11.2105 11.3667C11.2105 10.5783 11.3159 9.90481 11.5266 9.3461C11.7396 8.78739 12.045 8.36125 12.4428 8.06769C12.8429 7.77413 13.3211 7.62735 13.8774 7.62735C14.4338 7.62735 14.9108 7.77532 15.3085 8.07124C15.7063 8.36481 16.0105 8.79094 16.2212 9.34965C16.4343 9.906 16.5408 10.5783 16.5408 11.3667C16.5408 12.1598 16.4354 12.8369 16.2247 13.3979C16.014 13.9567 15.7098 14.384 15.3121 14.6799C14.9144 14.9735 14.4361 15.1203 13.8774 15.1203ZM13.8774 14.1721C14.3699 14.1721 14.7546 13.9318 15.0316 13.4512C15.3109 12.9706 15.4506 12.2758 15.4506 11.3667C15.4506 10.763 15.3867 10.2528 15.2588 9.83616C15.1334 9.41713 14.9522 9.09989 14.7155 8.88445C14.4811 8.66665 14.2018 8.55775 13.8774 8.55775C13.3874 8.55775 13.0027 8.79923 12.7233 9.28218C12.444 9.76514 12.3031 10.46 12.3007 11.3667C12.3007 11.9728 12.3635 12.4853 12.4889 12.9043C12.6168 13.321 12.7979 13.6371 13.0323 13.8525C13.2666 14.0656 13.5484 14.1721 13.8774 14.1721Z" fill="white"/>
</svg>
