<svg width="22" height="22" viewBox="0 0 22 22" fill="none" xmlns="http://www.w3.org/2000/svg">
<path d="M8.45 20.67C4.16 19.54 1 15.64 1 11C1 5.48 5.44 1 11 1C17.67 1 21 6.56 21 6.56M21 6.56V2M21 6.56H18.99H16.56" stroke="white" stroke-width="1.5" stroke-linecap="round" stroke-linejoin="round"/>
<path d="M21 11C21 16.52 16.52 21 11 21" stroke="white" stroke-width="1.5" stroke-linecap="round" stroke-linejoin="round"/>
<path d="M8.35861 7.72727V15H7.25776V8.82812H7.21515L5.47509 9.96449V8.91335L7.28972 7.72727H8.35861ZM12.8579 15.1207C12.2968 15.1184 11.8174 14.9704 11.4197 14.6768C11.022 14.3833 10.7177 13.956 10.507 13.3949C10.2963 12.8338 10.191 12.1579 10.191 11.3672C10.191 10.5788 10.2963 9.9053 10.507 9.34659C10.7201 8.78788 11.0255 8.36174 11.4232 8.06818C11.8233 7.77462 12.3016 7.62784 12.8579 7.62784C13.4142 7.62784 13.8913 7.7758 14.289 8.07173C14.6867 8.36529 14.991 8.79143 15.2017 9.35014C15.4147 9.90649 15.5213 10.5788 15.5213 11.3672C15.5213 12.1603 15.4159 12.8374 15.2052 13.3984C14.9945 13.9571 14.6903 14.3845 14.2926 14.6804C13.8948 14.974 13.4166 15.1207 12.8579 15.1207ZM12.8579 14.1726C13.3503 14.1726 13.735 13.9323 14.012 13.4517C14.2914 12.9711 14.4311 12.2763 14.4311 11.3672C14.4311 10.7635 14.3671 10.2533 14.2393 9.83665C14.1138 9.41761 13.9327 9.10038 13.696 8.88494C13.4616 8.66714 13.1822 8.55824 12.8579 8.55824C12.3678 8.55824 11.9831 8.79972 11.7038 9.28267C11.4244 9.76562 11.2836 10.4605 11.2812 11.3672C11.2812 11.9732 11.3439 12.4858 11.4694 12.9048C11.5972 13.3215 11.7784 13.6375 12.0127 13.853C12.2471 14.0661 12.5288 14.1726 12.8579 14.1726Z" fill="white"/>
</svg>
